<!-- Generated by IcoMoon.io -->
<svg version="1.1" xmlns="http://www.w3.org/2000/svg" width="1024" height="1024" viewBox="0 0 1024 1024">
<title></title>
<g id="icomoon-ignore">
</g>
<path fill="#000" d="M216.38 0c-0.137 0-0.317 0-0.496 0-119.233 0-215.884 96.651-215.884 215.884 0 0.18 0 0.331 0 0.511v-0.015 591.24c0 0.137 0 0.317 0 0.496 0 119.233 96.651 215.884 215.884 215.884 0.18 0 0.331 0 0.511 0h591.225c0.137 0 0.317 0 0.496 0 119.233 0 215.884-96.651 215.884-215.884 0-0.18 0-0.331 0-0.511v0.015-591.24c0-0.137 0-0.317 0-0.496 0-119.233-96.651-215.884-215.884-215.884-0.18 0-0.331 0-0.511 0h-591.225zM511.156 167.108c38.988 0 63.82 10.36 71.996 13.328 0.076 25.676-3.84 48.068-9.788 70.204-18.764-4.624-40.96-10.632-62.208-10.632-21.308 0-44.304 5.872-62.224 10.632-0.572-1.808-0.332-1.28-0.888-3.524-1.716-7.244-3.84-16.896-5.36-26.684-0.136-0.948 0.136-1.716 0-2.68-0.752-5-2.124-10.060-2.636-15.104-0.496-5.060-0.692-9.788-0.888-14.216-0.18-2.62 0.076-5.376 0-7.996 7.304-2.832 32.572-13.328 71.952-13.328zM410.684 198.22c0.844 8.824 2.168 17.484 3.584 26.64 1.552 10.376 3.344 20.148 5.316 28.432s3.524 14.516 7.996 21.324c0.242 1.023 0.525 1.917 0.908 2.759l-0.048-0.079c15.028 52.812 39.484 103.86 69.36 152.004 4.336 5.768 0.256 0 7.996 11.536 74.164 115.38 175.616 215.824 241.784 296.9l-95.096 119.1-231.108-292.428c-11.776-15.12 9.2 12.8-8.9-11.58l-62.224-79.088c-0.136-0.272 0.18-0.708 0-0.904-26.308-36.88-41.2-89.872-31.984-143.104 8.072-46.848 38.128-93.2 92.432-131.568zM613.376 199.108c54.196 38.264 84.36 83.908 92.432 130.68 9.2 53.188-5.692 106.224-32 143.104-0.18 0.272 0.136 0.692 0 0.888l-56.048 70.22c-31.308-37.768-62.088-77.236-88.848-118.212 28.748-46.652 51.020-95.472 64.888-146.672 0.313-0.303 0.587-0.582 0.881-0.896l0.007-0.008c2.115-1.844 3.695-4.27 4.431-7.023l0.013-0.113c5.888-22.076 12.364-44.528 14.216-71.996zM511.156 268.468c16.144 0 38.596 5.316 56.892 9.744-12.92 41.352-32.588 81.648-56.004 120.892-23.688-39.424-42.888-80.188-56.004-121.78 15.36-3.84 39.092-8.9 55.116-8.9zM406.256 589.312l88.004 112.912-122.684 154.64-95.096-119.116c35.976-44.092 82.612-93.56 129.776-148.42z"></path>
</svg>
